{"title":"Chernobyl Diaries 2012 R5 CAM AUDiO XviD-BiDA","uid":7409317,"size":746406256,"categoryP":"video","categoryS":"movies","magnet":"?xt=urn:btih:2548923a145d7f6e180ba7d4ca85c677cac0f7d3&amp;dn=Chernobyl+Diaries+2012+R5+CAM+AUDiO+XviD-BiDA&amp;tr=udp%3A%2F%2Ftracker.openbittorrent.com%3A80&amp;tr=udp%3A%2F%2Fopen.demonii.com%3A1337&amp;tr=udp%3A%2F%2Ftracker.coppersurfer.tk%3A6969&amp;tr=udp%3A%2F%2Fexodus.desync.com%3A6969","seeders":0,"leechers":0,"uploader":"tykoon123","files":4,"time":1341335919,"description":"Poster: &lt;a href=&quot;\nhttp://imgh.us/Chernobylposter.jpg&quot; rel=&quot;nofollow&quot; target=&quot;_NEW&quot;&gt;\nhttp://imgh.us/Chernobylposter.jpg&lt;/a&gt;\n\n\nFormat : AVI\nFormat/Info : Audio Video Interleave\nFile size : 697 MiB\nDuration : 1h 24mn\nOverall bit rate : 1 154 Kbps\nWriting application : VirtualDubMod 1.5.10.3 (build 2550/release)\nWriting library : VirtualDub build 32842/release\n\nVideo\nID : 0\nFormat : MPEG-4 Visual\nFormat profile : Advanced Simple@L5\nFormat settings, BVOP : 2\nFormat settings, QPel : No\nFormat settings, GMC : No warppoints\nFormat settings, Matrix : Custom\nCodec ID : XVID\nCodec ID/Hint : XviD\nDuration : 1h 24mn\nBit rate : 1 017 Kbps\nWidth : 640 pixels\nHeight : 336 pixels\nDisplay aspect ratio : 1.905\nFrame rate : 25.000 fps\nColor space : YUV\nChroma subsampling : 4:2:0\nBit depth : 8 bits\nScan type : Progressive\nCompression mode : Lossy\nBits/(Pixel*Frame) : 0.189\nStream size : 614 MiB (88%)\nWriting library : XviD 1.2.1 (UTC 2008-12-04)\n\nAudio\nID : 1\nFormat : MPEG Audio\nFormat version : Version 1\nFormat profile : Layer 3\nCodec ID : 55\nCodec ID/Hint : MP3\nDuration : 1h 24mn\nBit rate mode : Constant\nBit rate : 128 Kbps\nChannel(s) : 2 channels\nSampling rate : 44.1 KHz\nCompression mode : Lossy\nStream size : 77.3 MiB (11%)\nAlignment : Split accross interleaves\nInterleave, duration : 40 ms (1.00 video frame)\nInterleave, preload duration : 500 ms\n\n\nSCREENS: &lt;a href=&quot;\nhttp://imgh.us/vEKCZ.jpg&quot; rel=&quot;nofollow&quot; target=&quot;_NEW&quot;&gt;\nhttp://imgh.us/vEKCZ.jpg&lt;/a&gt;","torrent":{"xt":"urn:btih:2548923a145d7f6e180ba7d4ca85c677cac0f7d3","amp;dn":"Chernobyl+Diaries+2012+R5+CAM+AUDiO+XviD-BiDA","amp;tr":["udp%3A%2F%2Ftracker.openbittorrent.com%3A80","udp%3A%2F%2Fopen.demonii.com%3A1337","udp%3A%2F%2Ftracker.coppersurfer.tk%3A6969","udp%3A%2F%2Fexodus.desync.com%3A6969"],"infoHash":"2548923a145d7f6e180ba7d4ca85c677cac0f7d3","infoHashBuffer":{"type":"Buffer","data":[37,72,146,58,20,93,127,110,24,11,167,212,202,133,198,119,202,192,247,211]},"announce":[],"urlList":[]}}